<svg width="261" height="280" viewBox="0 0 261 280" fill="none" xmlns="http://www.w3.org/2000/svg">
<path d="M173.946 205.754C172.567 214.038 176.13 258.219 178.084 279.274H59.1377L56.7243 269.955C50.4035 237.969 37.0034 171.651 33.9694 162.263C30.9354 152.874 44.1976 130.277 51.208 120.153L74.9972 97.0264C78.1001 95.6457 84.6508 93.0915 86.0299 93.9199C87.7537 94.9554 108.095 96.3361 118.094 98.7522C126.092 100.685 134.068 105.771 137.056 108.072L173.946 177.795C174.521 183.663 175.326 197.47 173.946 205.754Z" stroke="white"/>
<path d="M120.533 148.357C112.243 129.128 125.138 114.102 132.621 108.993C139.184 106.206 152.654 111.431 156.798 112.825C160.943 114.218 160.252 115.96 160.598 117.702C160.874 119.095 169.693 123.624 174.068 125.714C177.061 126.991 183.186 129.824 183.739 130.939C184.291 132.054 189.035 134.423 191.337 135.468C192.834 135.003 196.38 134.701 198.59 137.209C200.801 139.718 209.413 142.203 213.442 143.132C213.672 142.667 214.271 141.39 214.824 139.996C215.515 138.255 211.37 123.624 209.643 117.702C207.916 111.78 208.952 110.038 211.37 107.251C213.304 105.021 222.077 105.858 226.222 106.554C227.143 107.367 229.33 108.993 230.712 108.993C232.439 108.993 249.708 135.119 250.399 138.951C250.951 142.017 255.695 156.253 257.997 162.988C265.181 178.594 251.32 185.979 243.491 187.721C235.202 187.373 215.722 186.119 204.117 183.889C192.512 181.66 167.736 179.477 156.798 178.664C145.47 178.106 138.723 175.877 136.766 174.832C134.809 174.019 128.822 167.586 120.533 148.357Z" stroke="white"/>
<path d="M164.833 176.672H160.341L130.971 244.383C127.285 251.868 119.568 266.976 118.186 267.529C116.459 268.22 116.113 263.383 107.129 252.674C98.1456 241.965 96.418 217.091 92.6171 197.4C89.5765 181.647 80.754 167.575 76.7228 162.508C76.3773 160.896 75.7553 157.119 76.0318 154.908C76.3773 152.144 83.2879 144.89 91.9261 130.726C100.564 116.562 118.877 112.416 123.715 109.998C127.585 108.063 139.379 108.731 144.792 109.307C142.488 108.731 136.499 107.165 130.971 105.507C124.06 103.434 113.694 104.816 107.475 105.507C101.255 106.198 83.6334 123.126 83.2879 124.507C83.0114 125.613 76.7228 133.95 73.6131 137.98C73.3827 138.096 72.7838 138.05 72.231 136.944C71.5399 135.562 68.0846 131.417 67.048 130.38C66.2188 129.551 67.3936 123.126 68.0846 120.016C68.8908 117.598 70.4342 112.623 70.1578 112.071C69.8123 111.38 70.8488 103.78 71.5399 102.398C72.0927 101.292 73.8434 99.6341 74.6497 98.9432C74.4193 98.3674 72.5765 98.045 67.048 101.361C60.1375 105.507 55.6456 114.489 54.2635 118.635C53.1578 121.951 50.8082 138.211 49.7716 145.926C49.7716 148.69 49.0114 154.908 45.9708 157.672C42.9301 160.435 31.3434 177.018 25.9301 184.963C24.7784 187.497 21.7147 193.254 18.674 196.018C15.6334 198.782 13.2607 203.849 12.4545 206.036C12.2242 207.879 11.9017 211.633 12.4545 211.909C13.1456 212.255 13.4911 220.891 13.1456 221.237C12.8692 221.513 12.109 236.092 11.7635 243.346L11.0724 246.456C9.34475 248.528 5.4057 252.881 3.47074 253.71C1.05204 254.747 2.77968 264.074 3.12521 265.801C3.40164 267.183 5.08321 267.068 5.88944 266.838L8.65367 279.274H123.715V276.165C128.552 267.068 138.572 248.459 139.955 246.801C141.337 245.143 154.121 209.491 160.341 191.873L164.833 176.672Z" stroke="white"/>
<path d="M26.9274 196.187C10.7597 200.06 9.96991 210.019 11.596 214.514C8.80842 211.194 12.7575 202.757 15.0804 198.954C17.9841 195.726 23.8611 188.58 24.1399 185.814C24.4883 182.356 50.273 151.581 57.5902 151.581C64.9075 151.581 61.0746 154.693 75.3607 161.955C86.7896 167.764 98.0094 220.623 102.191 246.326C99.5193 248.285 92.7828 252.066 87.2077 251.513C81.6327 250.959 70.7148 214.399 65.9528 196.187L52.0152 184.431C50.3891 186.736 43.0951 192.315 26.9274 196.187Z" stroke="white"/>
<path d="M53.0448 199.501L54.43 192.205C54.6517 191.094 55.4459 191.279 55.8154 191.511C55.9077 191.626 56.1478 192.066 56.3695 192.9C56.6465 193.942 55.5383 198.806 55.5383 200.891C55.5383 202.558 54.9842 203.207 54.7071 203.323C54.3377 203.438 53.488 203.462 53.0448 202.628C52.6015 201.794 52.86 200.196 53.0448 199.501Z" stroke="white"/>
<path d="M55.1054 201.574C54.8748 201.093 54.0487 200.972 53.6645 200.972C52.9729 201.213 52.8 201.876 52.8 202.177C52.8 202.578 53.0305 203.381 53.9527 203.381C55.1054 203.381 55.3935 202.177 55.1054 201.574Z" stroke="white"/>
<path d="M37.4259 253.017C27.9351 252.733 16.025 247.917 11.2563 245.544L6.72025 250.526C6.37133 250.645 4.97564 251.665 2.18422 254.797C-0.607201 257.928 2.18422 264.88 3.92886 267.964C4.27779 267.608 5.11521 267.039 5.6735 267.608C6.37135 268.32 11.2563 269.743 23.8177 273.302C33.8669 276.149 52.8951 273.065 61.153 271.167C63.1303 271.285 66.4567 269.458 63.9444 261.202C60.8041 250.882 49.2895 253.373 37.4259 253.017Z" stroke="white"/>
<path d="M196.992 62.6183C198.932 62.8955 200.802 66.1981 201.495 67.8148C202.996 67.2374 206.483 67.122 208.423 71.2792C210.27 72.0875 213.896 74.1893 213.619 76.1293C215.235 76.1293 218.537 76.9607 218.815 80.2865C220.431 80.7484 223.664 82.573 223.664 86.1759C223.664 90.6796 221.932 97.6083 222.625 98.3012C223.318 98.994 227.474 106.962 227.474 107.655C227.474 108.209 215.235 112.274 209.116 114.237L202.534 105.923C200.571 105.923 196.091 105.161 193.874 102.112C191.657 99.0633 186.485 96.9154 184.175 96.2226C183.482 95.8761 181.473 94.4904 178.979 91.7189C176.485 88.9474 179.788 87.0998 181.75 86.5224C182.443 86.9843 185.007 87.9774 189.718 88.2545C195.606 88.601 194.567 75.7829 193.874 71.9721C193.32 68.9234 191.796 66.3136 191.103 65.3898C190.41 64.9279 189.094 63.7962 189.371 62.9647C189.648 62.1333 192.489 61.4635 193.874 61.2326C194.105 61.579 195.052 62.3412 196.992 62.6183Z" stroke="white"/>
<path d="M110.239 11.8419L99.7814 82.4705L111.633 93.5495L170.195 99.7814C169.614 95.8576 168.382 87.8022 168.103 86.9713C167.754 85.9327 168.452 84.2016 169.846 83.5091C171.24 82.8167 170.543 81.4318 170.195 80.0469C169.916 78.939 177.747 68.9679 181.698 64.1209L172.983 52.0032C171.589 50.0644 173.332 47.964 174.377 47.1562C174.145 46.2329 173.82 44.1787 174.377 43.3478C174.935 42.5168 173.913 40.4626 173.332 39.5394C172.983 39.3085 172.216 38.2237 171.937 35.7309C171.589 32.615 167.057 24.6519 166.012 23.2671C165.175 22.1592 164.036 18.1892 163.572 16.3427L110.239 11.8419Z" stroke="white"/>
<path d="M130.117 71.1295C134.883 75.9884 136.775 71.4867 137.126 68.6285C136.425 68.6285 135.724 62.9121 135.023 58.2675C134.322 53.6229 136.074 52.1938 135.023 49.6929C134.182 47.6921 133.037 46.9537 132.57 46.8346C131.168 45.8819 127.173 44.5481 122.407 46.8346C116.45 49.6928 124.16 65.0558 130.117 71.1295Z" stroke="white"/>
<path d="M138.831 100.579C137.726 101.967 136.76 106.247 136.414 108.214C136.414 106.826 133.653 103.355 122.605 100.579C108.796 97.1085 88.4271 95.3733 86.0105 94.6792C83.5938 93.9851 83.9391 91.9029 84.6295 91.5558C85.32 91.2088 85.6652 89.4736 87.3914 84.962C89.1176 80.4504 90.4985 81.8386 96.3674 82.1856C102.236 82.5327 134.688 94.3322 137.105 96.0674C139.522 97.8026 140.212 98.8438 138.831 100.579Z" stroke="white"/>
<path d="M151.077 58.8983L143.777 51.5954C144.009 54.0297 144.403 59.8025 144.125 63.4191C143.847 67.0358 136.13 85.3279 132.307 94.0219C135.204 94.8333 140.51 97.2908 138.564 100.629C136.617 103.968 136.826 107.584 137.173 108.975L158.029 115.931C159.882 116.394 164.285 117.6 167.066 118.713C170.542 120.104 174.018 116.974 175.408 114.54C176.798 112.105 172.28 101.673 172.627 97.1517C172.975 92.6308 169.847 89.501 169.151 90.1965C168.595 90.7529 167.529 90.6602 167.066 90.5443C166.023 89.1533 163.52 86.7189 161.852 88.11C160.184 89.501 159.535 88.6896 159.419 88.11C159.651 87.2985 160.392 85.6061 161.504 85.3279C162.617 85.0497 165.444 83.821 166.718 83.2414C167.877 81.1548 170.333 76.7035 170.889 75.5907C171.445 74.4779 170.658 74.1996 170.194 74.1996C168.688 76.1703 164.772 80.2506 161.157 80.8071C157.542 81.3635 152.931 66.433 151.077 58.8983Z" stroke="white"/>
<path d="M184.279 58.2014L192.884 65.6548L199.767 77.0122L193.228 90.1442L183.591 88.3696C179.231 85.7668 170.305 80.5614 169.479 80.5614C168.653 80.5614 168.447 80.0881 168.447 79.8515C172.691 72.9898 181.526 58.8403 182.902 57.1367C184.279 55.4331 184.394 57.1367 184.279 58.2014Z" fill="#F3C263" stroke="#FD769E"/>
<path d="M98.7925 75.9257C100.728 77.8831 100.751 81.4017 100.521 82.9163C105.937 79.0715 116.493 71.1023 115.386 69.9838C114.003 68.5857 119.535 53.556 121.263 49.7112C122.992 45.8664 128.869 46.2159 134.746 46.915C139.447 47.4742 146.615 56.2357 149.611 60.5466C149.841 57.4008 150.164 50.4103 149.611 47.6141C148.92 44.1188 152.377 42.3711 155.488 39.9245C158.599 37.4778 150.994 24.8948 151.339 22.0986C151.685 19.3024 157.908 19.3024 162.056 22.0986C165.375 24.3356 166.896 22.0986 167.242 20.7005C166.435 17.9043 162.955 11.0535 155.488 6.02035C146.154 -0.271138 124.72 -0.271138 116.769 3.92319C108.818 8.11751 98.1011 11.2633 92.2241 36.7787C87.5226 57.1911 91.8784 64.3914 94.6441 65.4399C95.2202 68.1196 96.8566 73.9684 98.7925 75.9257Z" stroke="white"/>
</svg>
