<svg width="106" height="80" viewBox="0 0 106 80" fill="none" xmlns="http://www.w3.org/2000/svg">
<path d="M99.207 26.5C105.227 34.5 109.323 49.885 99.207 61.5C85.7068 77 69.3606 79.5 56.2068 79.5C46.7068 79.5 18.8164 79.4128 5.20696 61C-3.29303 49.5 0.706997 36 2.70694 33.5C8.57529 26.1644 10.2434 23.5 18.396 18.3436C33.5092 8.78461 63.5057 8.95853 76.707 11.5C80.9936 12.4862 89.8157 14.0193 99.207 26.5Z" fill="#F0F0F0"/>
<path d="M3.20694 41.5C5.70696 31.5 12.207 27 16.8796 22.5245C18.1302 21.9168 21.6095 20.2227 25.5207 18.3084C30.4098 15.9154 68.6129 12.9527 76.1171 14.8899C82.1204 16.4396 80.2258 13.4937 89.2069 20C95.2069 24.3467 99.2124 30 101.707 40C104.201 50 98.707 62 86.207 69C80.207 72 79.4899 74.2794 61.207 76.376C38.3533 78.9969 13.5727 65.8743 9.70696 62C5.84117 58.1257 0.833506 50.9937 3.20694 41.5Z" fill="url(#paint0_linear)"/>
<path d="M73.2297 55.3257C65.2545 63.6883 57.4831 63.6391 51.026 63.2793C46.9477 63.052 39.471 61.5749 32.674 56.5756C23.3355 49.7068 29.8797 42.6379 34.0334 40.3276L67.5655 33.283C72.7765 37.1462 81.2048 46.9631 73.2297 55.3257Z" fill="url(#paint1_linear)" stroke="#CAC5C5"/>
<path d="M89.9582 42.0596C87.5867 44.5342 74.6798 48.3607 68.5229 49.9646C68.5229 49.3918 67.9528 49.2314 65.6724 53.1725C63.392 57.1135 57.4251 58.939 54.7267 59.359C51.9902 59.97 44.9895 60.1839 38.8782 56.1512C31.2389 51.1103 28.7305 40.4557 27.7044 37.8207C26.6782 35.1857 24.6259 19.9484 24.7399 16.9697C24.8539 13.991 24.5119 13.3036 27.9324 7.46074C31.353 1.61789 50.508 -1.01712 57.007 0.357665C63.5061 1.73245 67.8387 2.53441 72.0574 5.97139C76.2761 9.40836 76.3901 13.189 76.1621 16.3969C75.9796 18.9631 76.9982 19.5283 77.5303 19.4901C79.1265 19.261 83.2312 19.3298 86.8798 21.4378C91.4405 24.0728 90.7564 24.1873 93.0367 27.968C95.3171 31.7487 92.9227 38.9663 89.9582 42.0596Z" fill="#E9E9E9"/>
<path d="M29.4901 15.6482C29.4901 12.935 32.5272 10.1464 34.0458 9.09132C39.0571 6.37812 44.8277 6.37812 47.2574 6.03897C54.8124 5.32299 66.9926 5.86873 70.4917 14.0655C73.339 20.7354 65.1753 24.1691 52.1549 25.2574C41.335 26.1618 34.3875 22.3182 30.2873 19.3789C30.0216 19.2658 29.4901 18.3614 29.4901 15.6482Z" fill="url(#paint2_radial)"/>
<path d="M87.6896 36.4494C85.3206 40.5192 76.528 41.3105 72.4279 41.1975C73.8857 38.9365 74.3261 35.658 74.364 34.3014C74.0603 32.3796 74.2957 28.355 77.667 27.6315C81.0382 26.908 84.6145 28.762 85.9812 29.7794C87.5377 30.307 90.0586 32.3796 87.6896 36.4494Z" fill="url(#paint3_linear)"/>
<path d="M48.3963 22.6573C49.3075 23.0191 52.5724 22.5066 54.091 22.2051C54.6225 22.3558 54.7744 22.793 51.1298 23.3356C46.574 24.0139 45.6629 23.9008 44.5239 23.6747C43.385 23.4486 42.1322 22.6573 41.4488 21.4138C40.7655 20.1702 44.8656 18.8136 45.3212 18.4745C45.6857 18.2031 45.7008 17.1555 45.6629 16.6657C45.3971 16.2135 45.4123 14.9925 47.5991 13.7264C49.7858 12.4602 50.864 13.8017 51.1298 14.6308C50.7881 14.9699 50.4008 15.6482 51.5853 15.6482C53.0659 15.6482 54.4327 16.1004 55.116 16.6657C55.7994 17.2309 55.6855 18.0223 55.116 18.8136C54.6605 19.4467 48.9278 19.8311 46.1184 19.9441C45.7388 20.0195 44.9567 20.3511 44.8656 21.0746C44.7517 21.979 47.2574 22.2051 48.3963 22.6573Z" fill="url(#paint4_radial)"/>
<defs>
<linearGradient id="paint0_linear" x1="24.207" y1="56" x2="88.1315" y2="12.9434" gradientUnits="userSpaceOnUse">
<stop stop-color="#E2E2E2"/>
<stop offset="1" stop-color="#CACACA"/>
</linearGradient>
<linearGradient id="paint1_linear" x1="73.6032" y1="32.2264" x2="52.207" y2="63.3962" gradientUnits="userSpaceOnUse">
<stop stop-color="#B1B1B1"/>
<stop offset="1" stop-color="#DDDDDD" stop-opacity="0"/>
</linearGradient>
<radialGradient id="paint2_radial" cx="0" cy="0" r="1" gradientUnits="userSpaceOnUse" gradientTransform="translate(50.274 15.6017) rotate(90) scale(9.79034 20.784)">
<stop stop-color="#8C3200"/>
<stop offset="1" stop-color="#7A2C00"/>
</radialGradient>
<linearGradient id="paint3_linear" x1="93.4145" y1="15.0566" x2="30.5466" y2="62.3396" gradientUnits="userSpaceOnUse">
<stop stop-color="#CCCCCC"/>
<stop offset="1" stop-color="#CCCCCC" stop-opacity="0"/>
<stop offset="1" stop-color="#CCCCCC" stop-opacity="0"/>
<stop offset="1" stop-color="#CCCCCC" stop-opacity="0"/>
</linearGradient>
<radialGradient id="paint4_radial" cx="0" cy="0" r="1" gradientUnits="userSpaceOnUse" gradientTransform="translate(48.4795 18.5282) rotate(89.8062) scale(8.67944 11.5918)">
<stop stop-color="white"/>
<stop offset="1" stop-color="white" stop-opacity="0"/>
</radialGradient>
</defs>
</svg>
