<svg width="287" height="320" viewBox="0 0 287 320" fill="none" xmlns="http://www.w3.org/2000/svg">
<circle cx="148.5" cy="144.5" r="138.5" fill="#1A3838"/>
<path d="M88.8487 298.92V304.676H278.057V280.575L88.8487 298.92Z" fill="#703D21"/>
<path d="M234.821 217.189C233.299 215.441 234.187 212.521 234.821 211.279L225.689 209.352L224.04 211.279L214.655 218.602C215.289 219.886 215.746 223.535 212.499 227.851C208.44 233.247 207.426 237.872 205.904 242.625C204.686 246.428 211.231 253.203 214.655 256.115C222.772 254.059 239.108 249.563 239.514 248.021C240.021 246.094 236.85 243.139 234.821 239.542C232.792 235.945 229.875 235.945 232.031 235.303C234.187 234.66 236.723 219.373 234.821 217.189Z" fill="#FFEFC6"/>
<path d="M242.425 210.043C242.085 212.7 229.43 211.15 223.145 210.043V196.248C220.216 189.564 213.789 175.48 211.521 172.618C208.686 169.042 211.521 166.998 211.521 160.101C212.769 158.261 206.654 151.415 203.441 148.222L183.453 105.177L189.548 102.877C196.967 106.497 212.967 114.859 217.617 119.355C223.429 124.975 231.509 140.686 230.8 144.645C230.092 148.605 233.777 179.771 235.195 185.775C236.613 191.778 242.85 206.722 242.425 210.043Z" fill="#FD769E"/>
<path d="M77.3991 93.135C49.4418 99.3506 38.5618 117.87 0 181.295C0.964045 179.519 37.1846 163.536 42.2803 163.028C47.3759 162.521 82.7702 152.5 87.1773 151.232C90.7029 150.217 110.406 147.933 119.817 146.919L133.451 142.986L136.619 93.135C137.032 91.782 135.848 88.3401 127.805 85.3973C117.751 81.7187 105.356 86.9194 77.3991 93.135Z" fill="#FD769E"/>
<path d="M167.373 147.558C160.835 142.761 144.194 139.888 136.69 139.051L138.984 95.6832C141.374 96.8918 146.555 99.7272 148.161 101.401C149.766 103.074 163.646 105.538 170.384 106.56L178.557 109.349C180.755 108.931 185.697 108.345 187.876 109.349C190.056 110.353 190.41 117.669 190.314 121.202L199.203 146.163C199.442 147.465 199.261 149.9 196.623 149.231C193.984 148.562 187.016 149.51 183.862 150.068C181.09 151.23 173.911 152.355 167.373 147.558Z" fill="#FD769E"/>
<path d="M148.328 99.9791C151.172 102.221 168.133 105.243 176.259 106.475C175.455 106.05 172.628 104.36 167.752 100.998C161.659 96.7951 161.785 92.4647 158.612 87.7524C155.438 83.04 154.803 69.667 153.152 67.8839C151.832 66.4574 152.602 57.5251 153.152 53.2373C150.74 58.4591 145.535 69.5141 144.012 71.9595C142.488 74.4048 140.16 75.186 139.187 75.2709L129.792 82.4032L122.302 85.0778C129.792 89.1109 145.484 97.7375 148.328 99.9791Z" fill="#FFEAB4"/>
<path d="M125.753 97.8928C126.261 88.5453 136.218 77.6569 141.133 73.3811C140.286 77.9533 139.099 88.1897 141.133 92.5586C143.675 98.0198 143.167 103.354 141.133 106.021C139.099 108.688 139.226 133.2 141.133 136.756C143.04 140.312 144.438 136.756 150.03 136.756C155.623 136.756 160.453 140.312 167.953 145.519C175.452 150.726 173.927 145.519 181.045 145.519C188.163 145.519 191.595 147.551 195.408 145.519C199.221 143.487 191.595 126.215 188.926 123.928C186.79 122.1 185.833 111.228 185.621 106.021H188.926L204.306 147.551C206.806 149.625 211.805 154.231 211.805 156.06C211.805 157.889 217.371 176.02 221.296 185.077C224.043 191.418 223.107 188.7 227.334 197.758C231.222 206.089 228.844 214.062 221.296 219.194C217.069 222.516 217.764 220.275 211.634 228.856C210.125 230.969 207.229 237.343 207.611 243.947C207.916 249.23 214.491 255.625 216.525 257.53C212.924 258.63 221.83 263.06 215.525 267.531C209.22 272.001 204.558 273.685 205.024 274.532L203.524 282.533L200.523 288.033L191.522 289.033L88.8914 298.812V305.035H35.2517L37.7939 297.161C43.3867 286.62 55.8687 264.343 61.0547 259.568C66.2407 254.793 83.0161 240.933 84.2238 239.423L93.525 225.899C98.5609 211.87 93.9818 221.403 101.798 194.604C111.87 160.072 122.575 140.058 125.753 130.914C128.931 121.769 125.117 109.577 125.753 97.8928Z" fill="#F3C263"/>
<path d="M83.4404 187.228L36.1453 217.266H34.6197C33.094 217.266 12.3706 211.284 2.45393 192.956C-5.47945 178.294 7.70894 168.943 15.2948 166.1C21.7364 165.591 34.874 164.471 35.8911 164.064C37.1624 163.555 45.5535 162.282 49.8762 161.519C54.1988 160.755 75.4308 150.191 80.3891 151.464C85.3475 152.736 110.012 146.118 110.902 146.5C111.792 146.882 122.09 144.082 126.413 142.936C130.736 141.791 133.405 143.063 138.491 142.682C142.559 142.376 144.254 143.148 144.594 143.573C145.356 144.548 148.281 147.467 153.875 151.336C160.867 156.173 162.52 159.482 162.774 159.991C162.978 160.398 162.59 163.669 162.647 166.1C162.666 166.906 165.108 166.906 166.187 168.345C166.843 169.22 167.605 170.155 167.605 171.955C167.605 173.381 167.469 174.387 166.346 175.416C166.346 175.416 165.44 175.718 165.139 175.416C164.837 175.114 163.931 173.906 163.931 173.906L163.028 172.973L161.87 172.302C161.121 172.302 160.791 173.836 160.791 173.381C160.791 172.614 160.072 174.82 158.273 176.618C157.976 176.915 155.654 178.234 154.637 178.701L152.095 180.355C151.25 180.549 151.069 180.549 150.344 180.549C149.62 180.549 148.835 180.347 148.533 180.247C147.929 179.945 147.772 179.068 147.772 178.701C147.772 178.065 147.899 177.513 147.772 177.046C147.051 177.174 145.585 177.555 145.483 178.065C145.356 178.701 138.745 180.483 138.618 180.737C138.516 180.941 134.931 181.416 133.151 181.628C132.346 181.84 130.608 182.29 130.1 182.392C129.591 182.494 128.701 182.18 128.32 182.01C128.15 181.671 127.913 180.941 128.32 180.737C128.727 180.534 128.744 180.143 128.701 179.974C128.405 179.719 127.608 179.312 126.794 179.719C125.981 180.126 124.845 180.228 124.379 180.228L123.107 179.21L121.582 179.974C120.48 180.313 117.742 180.941 115.606 180.737C112.936 180.483 111.919 178.192 111.411 178.192C110.902 178.192 110.266 175.519 110.139 174.628C110.038 173.915 109.249 173.822 108.868 173.864C108.529 174.119 107.775 174.755 107.469 175.264C107.164 175.774 104.969 176.495 103.91 176.792C103.02 176.877 101.113 177.148 100.604 177.555C100.095 177.963 97.0865 177.216 95.6456 176.792C94.6285 177.089 92.3655 178.141 91.4501 179.974C90.5347 181.806 85.7289 185.574 83.4404 187.228Z" fill="#FFEFC6"/>
<path d="M160.618 93.1711L157.574 82.7441L154.676 57.8996L162.357 46.1853C166.657 44.4261 175.43 40.2896 176.125 37.818C176.821 35.3457 190.457 29.6586 194.838 27.4849C195.338 26.9411 195.758 26.6187 196.043 26.6187C196.448 26.6187 195.931 26.9423 194.838 27.4849C192.482 30.0468 188.365 37.5222 188.444 39.3627L192.213 40.9075C194.966 42.066 201.495 38.5486 199.64 34.5323C197.785 30.516 215.933 29.1932 225.981 26.6187V32.6689C225.981 34.1913 227.598 32.8236 228.252 31.9825L228.01 31.6546C228.683 31.21 228.616 31.5149 228.252 31.9825L230.935 35.6114L231.294 37.41L228.01 40.9075C229.653 40.5642 232.822 40.0836 232.358 40.9075C231.894 41.7313 227.913 48.2021 225.981 51.3345L228.01 55.84L234.532 64.2073C232.841 66.2669 227.14 69.0124 225.981 69.4243C224.532 69.9392 221.598 71.9726 221.598 74.8764C221.598 76.649 220.632 79.0283 219.182 81.2167C218.023 82.9674 215.958 85.6214 214.654 86.6513L208.615 93.1711C206.973 94.3726 201.031 99.126 199.64 99.3319C197.901 99.5894 186.995 105.786 182.357 106.301C177.72 106.816 173.951 106.044 172.937 105.786C171.922 105.529 169.024 102.568 166.85 101.152C165.111 100.019 161.971 95.3595 160.618 93.1711Z" fill="url(#paint0_linear)"/>
<path d="M150.326 49.7845L153.137 51.079C162.372 44.3043 179.799 31.0139 175.623 32.0495C170.403 33.344 175.222 24.1529 166.187 23.7646C157.152 23.3762 156.349 27.907 154.542 27.6481C152.735 27.3892 150.326 34.768 150.326 37.3571C150.326 39.4283 149.389 41.068 148.921 41.629C149.389 42.8804 150.326 45.7973 150.326 47.4543V49.7845Z" fill="#FFE6A8"/>
<path d="M169.407 177.815C173.266 178.119 185.316 206.17 190.859 220.158L191.366 222.186C191.197 222.609 190.579 223.327 189.463 222.82C188.066 222.186 149.225 243.738 139.325 250.71C131.404 256.288 126.885 251.344 125.616 248.175C121.427 240.019 112.238 222.135 108.988 215.847C105.739 209.559 107.634 204.86 108.988 203.297L113.05 200.761V199.747C113.304 199.705 114.294 199.392 116.223 198.479C118.153 197.566 118.889 195.986 119.016 195.31C120.327 191.633 123.154 183.824 123.966 181.998C124.778 180.173 126.42 179.801 127.139 179.843C127.943 180.139 129.069 180.731 127.139 180.731C124.728 180.731 122.697 191.507 121.554 192.774C120.64 193.788 119.904 197 119.65 198.479C134.332 193.07 163.822 182.201 164.33 181.998C164.965 181.745 164.965 181.238 164.965 180.731C164.965 180.325 164.542 180.393 164.33 180.477L158.872 182.759C158.83 182.506 158.618 181.922 158.111 181.618C157.603 181.314 157.56 180.9 157.603 180.731C158.534 180.266 160.776 179.184 162.299 178.576C163.822 177.967 163.526 176.885 163.188 176.42L161.411 172.744L161.918 171.223L164.584 175.533L164.965 177.435L164.711 178.702L165.346 179.083C165.092 178.533 165.549 177.511 169.407 177.815Z" fill="#BDBDBD"/>
<path d="M117.985 76.0555V83.5679C119.809 83.1435 124.346 82.1928 127.908 81.7853C131.471 81.3779 136.856 77.0317 139.104 74.9096L145.083 69.1797L152.589 50.5896C153.013 49.2315 153.378 46.0313 151.444 44.0958C149.027 41.6766 152.589 35.4375 151.444 34.4188C150.299 33.4002 156.151 27.6704 158.441 25.1238C160.273 23.0865 163.36 24.2749 164.675 25.1238C166.202 27.4157 168.949 31.9996 167.728 31.9996C166.507 31.9996 157.975 44.393 153.861 50.5896C153.352 55.3857 152.157 65.4617 151.444 67.3971C150.554 69.8164 151.571 76.0555 153.861 81.0214C156.151 85.9872 153.607 89.2978 153.861 92.863C154.065 95.7152 155.473 100.248 156.151 102.158C156.49 98.805 157.423 91.5388 158.441 89.2978C159.713 86.4965 159.713 78.2201 158.441 76.0555C157.169 73.8909 157.678 58.3567 158.441 54.1549C159.052 50.7934 164.887 46.0482 167.728 44.0958L180.832 35.9468L190.882 31.9996L186.557 40.0213L188.592 42.3132H195.08C196.183 41.5493 199.253 39.6648 202.714 38.2387C206.174 36.8126 209.159 35.0979 210.22 34.4188L218.743 29.7076L215.308 40.0213L206.912 48.0431C207.505 48.6373 208.998 49.9785 210.22 50.5896C211.746 51.3536 216.962 45.2418 220.524 42.3132C223.374 39.9704 225.274 34.4613 225.868 31.9996C226.758 34.0793 228.005 39.0536 225.868 42.3132C223.73 45.5729 223.111 46.4727 223.069 46.5151L216.962 56.5741L223.069 60.1394L225.868 64.9779C224.85 67.3122 223.425 71.5226 225.868 69.6891C228.31 67.8555 232.568 68.9251 234.391 69.6891C235.239 64.9779 237.572 54.9188 240.116 52.3723C243.297 49.189 236.936 32.2542 236.936 29.7076C236.936 27.161 229.048 16.338 216.962 5.00573C207.293 -4.06013 184.606 1.22829 174.471 5.00573C172.732 5.85459 168.949 8.06163 167.728 10.0989C166.202 12.6455 162.003 15.5741 159.713 18.3753C157.423 21.1766 151.826 19.3939 147.882 22.1952C143.938 24.9964 138.595 33.9095 135.033 38.2387C131.471 42.5679 130.198 44.9871 129.944 48.0431C129.69 51.099 127.018 57.8474 124.728 61.6673C122.896 64.7232 122.268 69.8164 122.184 71.981L117.985 76.0555Z" fill="url(#paint1_linear)"/>
<path d="M253.262 287.751C246.946 297.395 230.766 302.514 223.466 303.867C220.919 304.206 215.011 304.68 211.751 303.867C203.023 301.693 198.62 295.534 196.023 290.034C192.62 282.826 191.556 279.635 190.57 276.676L190.522 276.532C189.522 273.532 189.522 271.031 194.523 266.031C199.691 260.862 224.225 250.512 235.527 249.529C247.029 248.529 250.346 249.118 253.529 251.529C256.076 253.458 258.233 262.681 258.53 266.531C258.53 270.031 259.577 278.106 253.262 287.751Z" fill="url(#paint2_linear)"/>
<path d="M241.528 266.531C247.902 263.156 252.529 258.53 253.529 255.029C253.529 252.529 253.085 249.753 245.215 249.652C235.379 249.525 234.244 250.413 229.452 251.175C224.66 251.936 211.04 257.012 201.077 262.722C191.115 268.432 190.848 274.096 192.022 277.032C193.022 279.532 198.271 278.685 202.023 278.032C225.026 274.032 233.027 271.031 241.528 266.531Z" fill="url(#paint3_linear)"/>
<path d="M196.424 230.275C200.753 236.393 206.904 265.878 209.438 279.855L212.402 279.346C212.359 279.516 212.531 279.601 213.561 278.581C214.85 277.306 204.155 237.157 200.676 226.961C197.893 218.804 191.871 215.66 189.208 215.107L190.626 224.029C190.754 223.562 192.095 224.157 196.424 230.275Z" fill="white"/>
<path d="M69.0729 291.011C38.4385 280.91 30.2714 272.194 26.6484 272.428V319.761H284V267.87H274.884C273.832 275.584 268.643 291.992 256.301 295.919C240.874 300.828 239.472 299.425 183.724 301.88C139.126 303.843 88.7073 295.452 69.0729 291.011Z" fill="#171717"/>
<defs>
<linearGradient id="paint0_linear" x1="301.344" y1="79.5637" x2="121.984" y2="36.1411" gradientUnits="userSpaceOnUse">
<stop offset="0.245505" stop-color="#FFEDBF"/>
<stop offset="1" stop-color="#FEDB82"/>
</linearGradient>
<linearGradient id="paint1_linear" x1="267.031" y1="5.50065" x2="55.5064" y2="230.527" gradientUnits="userSpaceOnUse">
<stop offset="0.187042" stop-color="#FD769E"/>
<stop offset="1" stop-color="white"/>
</linearGradient>
<linearGradient id="paint2_linear" x1="223.74" y1="249.64" x2="253.956" y2="283.453" gradientUnits="userSpaceOnUse">
<stop stop-color="white"/>
<stop offset="1" stop-color="#F4F4F4"/>
</linearGradient>
<linearGradient id="paint3_linear" x1="224.82" y1="301.798" x2="230.215" y2="213.309" gradientUnits="userSpaceOnUse">
<stop stop-color="#878787"/>
<stop offset="1" stop-color="white" stop-opacity="0"/>
</linearGradient>
</defs>
</svg>
