<svg width="98" height="81" viewBox="0 0 98 81" fill="none" xmlns="http://www.w3.org/2000/svg">
<path d="M67.3162 73.6795C66.4694 73.8383 64.5377 73.8339 63.6777 73.8118C63.0382 73.5914 60.6214 74.1028 56.07 77.9124C51.5186 81.722 40.6782 81.2194 35.8269 80.4918C32.8721 79.9627 25.2953 77.3172 18.627 70.9678C11.9586 64.6185 8.35106 55.7118 7.3808 52.0521C5.72696 49.9798 2.16788 45.0679 1.16235 41.999C-2.67458 31.9459 3.96286 16.8002 6.98389 13.8239C10.7547 9.17215 22.1728 -0.104924 37.6792 0.00089764C57.0623 0.133175 58.5177 2.64645 67.3162 6.35022C74.3549 9.31324 80.6572 18.0788 82.9285 22.0913C83.6782 23.1054 85.3762 26.9591 86.17 34.2608C86.9639 41.5625 84.3398 47.9736 82.9285 50.2664C82.5316 50.8837 81.8171 52.0786 82.1346 51.9199C82.4522 51.7611 85.8834 52.1624 87.5592 52.3828C88.1767 52.5151 90.0731 53.1765 92.7193 54.7638C95.3654 56.3512 96.7767 59.7463 97.1516 61.2454C97.5264 62.8107 97.2839 66.6556 93.3146 69.5128C89.3454 72.37 83.9428 72.8638 81.7377 72.7536L68.6393 73.1504C68.5511 73.2607 68.1629 73.5208 67.3162 73.6795Z" fill="#FD769E"/>
<path d="M87.0957 66.3825C78.7775 67.7547 72.9893 66.6904 71.1349 65.9867C71.7972 63.5458 71.7972 62.1605 74.5125 62.1605C79.8834 62.1605 77.0291 61.039 80.2743 59.5877C82.8704 58.4266 86.3009 59.5437 87.6917 60.2473C90.9589 61.7207 95.4138 65.0103 87.0957 66.3825Z" fill="#E1D2D2"/>
<path d="M80.2743 23.7662C85.6784 35.5352 81.4663 46.5697 78.6848 50.6158C69.8898 62.2792 53.9158 65.7228 47.0282 65.9867C41.2223 66.6464 26.7759 65.6305 15.4378 56.2892C4.09973 46.9479 2.28069 37.3119 2.78843 33.6616C2.74428 27.5704 6.03357 13.6728 19.5439 6.81202C33.0543 -0.0488169 49.8097 2.45803 56.4987 4.56905C62.1722 6.06436 74.8701 11.9972 80.2743 23.7662Z" fill="#E1D2D2"/>
<path d="M60.5661 19.752C68.823 25.9254 75.6267 35.5505 75.1643 40.7282C74.5656 47.4326 74.2971 50.9449 71.9276 54.2034C60.6322 69.7364 36.39 66.5723 27.2083 62.7665C22.8487 61.3725 10.196 56.5642 9.04316 45.043C7.85417 33.1609 15.1202 24.288 20.2725 20.6813C27.2083 16.1453 45.6663 8.61199 60.5661 19.752Z" fill="url(#paint0_linear)"/>
<path d="M53.3325 43.875C51.7573 55.3339 39.8995 60.7393 34.1675 62.0096C22.6685 61.5365 15.6807 55.8114 13.6242 53.008C11.2395 49.2409 7.90097 39.6567 13.6242 31.4567C19.3475 23.2567 32.2423 23.0902 37.9743 24.032C43.75 25.8718 54.9077 32.416 53.3325 43.875Z" fill="#FFFA7D"/>
<path d="M15.1761 35.5472C16.0689 33.4891 17.605 32.7107 18.2614 32.5788C19.1017 31.9455 20.4058 32.8426 20.9529 33.3704C23.5349 35.3273 28.9222 39.3864 29.815 39.9669C30.7077 40.5474 29.9681 41.0883 29.4867 41.2862C27.3205 41.1542 22.1082 40.9168 18.5897 41.0223C15.0711 41.1279 14.3227 40.0988 14.3884 39.5711C14.279 39.0873 14.2833 37.6053 15.1761 35.5472Z" fill="#CCC374"/>
<path d="M29.815 39.5711L20.0339 31.9851C19.1411 30.7575 20.6247 29.5826 21.478 29.1486C22.0251 28.8847 23.7625 28.1723 26.3358 27.4335C28.9091 26.6947 29.7274 28.401 29.815 29.3465C30.2088 31.5233 31.0885 36.4048 31.4561 38.5156C31.8237 40.6265 30.5152 40.0988 29.815 39.5711Z" fill="#CCC374"/>
<path d="M31.85 38.5156L30.3401 28.0932C30.149 26.7739 31.7484 26.6639 32.5721 26.7739C33.6443 26.6639 36.5108 26.7739 39.3991 28.0932C42.2875 29.4125 41.9155 30.4459 41.3685 30.7977C39.4429 32.249 35.2504 35.8243 33.885 38.5156C32.5195 41.207 31.9594 39.637 31.85 38.5156Z" fill="#CCC374"/>
<path d="M46.3575 37.922L36.6421 39.9669C32.0206 41.3917 33.141 39.5931 34.2788 38.5156C35.8762 36.9545 39.4648 33.4231 41.0403 31.7872C42.6158 30.1513 43.9724 30.8417 44.4538 31.3914C44.5413 31.5893 45.189 32.46 47.0796 34.3598C48.9702 36.2596 47.386 37.5262 46.3575 37.922Z" fill="#CCC374"/>
<path d="M45.8324 47.289C43.2066 45.8114 37.4298 43.551 34.8696 42.6055C32.2438 41.5969 33.7756 40.8659 34.8696 40.6265C37.3641 40.1208 43.1278 38.9642 46.2262 38.3837C49.3247 37.8032 49.7492 40.2087 49.5741 41.4841C49.421 44.0347 48.4582 48.7666 45.8324 47.289Z" fill="#CCC374"/>
<path d="M37.6267 51.7746C37.3116 50.6136 34.6071 46.4095 33.2942 44.4525C32.0737 42.5842 33.6171 42.5306 34.5414 42.7374C36.7077 43.595 41.6179 45.5871 43.9287 46.6953C46.2394 47.8035 46.3356 49.18 46.0949 49.7297C46.0074 49.9936 45.1759 51.1018 42.5501 53.4237C39.2679 56.3262 38.0206 53.2259 37.6267 51.7746Z" fill="#CCC374"/>
<path d="M37.8893 53.2259C37.7318 52.276 34.3664 46.7613 32.7033 44.1227C32.0206 42.5395 31.4999 43.507 31.3248 44.1886C31.106 45.2221 30.327 48.2785 28.9616 52.2364C27.5962 56.1943 28.7428 56.744 29.4867 56.5241C30.9528 56.6121 34.3839 56.6692 36.3795 56.1943C38.874 55.6006 38.0862 54.4132 37.8893 53.2259Z" fill="#CCC374"/>
<path d="M30.8653 44.1227L27.6487 53.6216C27.0411 55.4159 25.6887 55.4687 25.0885 55.2708C24.0163 54.831 21.5043 53.6084 20.0339 52.2364C18.5634 50.8643 20.6465 49.5978 21.8719 49.136C23.7975 47.6628 28.0163 44.4657 29.4867 43.463C30.9572 42.4604 31.0185 43.485 30.8653 44.1227Z" fill="#CCC374"/>
<path d="M29.2898 43.1332C28.8697 43.2387 21.9813 48.0586 18.5897 50.4553C17.5919 50.6664 16.6422 49.6637 16.2921 49.136C15.745 47.9926 14.5984 45.2573 14.3884 43.463C14.1783 41.6688 16.314 41.2642 17.4081 41.2862C20.7341 41.3521 27.7012 41.4973 28.9616 41.55C30.5371 41.616 29.815 43.0013 29.2898 43.1332Z" fill="#CCC374"/>
<path d="M15.1761 35.5472C16.0689 33.4891 17.605 32.7107 18.2614 32.5788C19.1017 31.9455 20.4058 32.8426 20.9529 33.3704C23.5349 35.3273 28.9222 39.3864 29.815 39.9669C30.7077 40.5474 29.9681 41.0883 29.4867 41.2862C27.3205 41.1542 22.1082 40.9168 18.5897 41.0223C15.0711 41.1279 14.3227 40.0988 14.3884 39.5711C14.279 39.0873 14.2833 37.6053 15.1761 35.5472Z" stroke="white"/>
<path d="M29.815 39.5711L20.0339 31.9851C19.1411 30.7575 20.6247 29.5826 21.478 29.1486C22.0251 28.8847 23.7625 28.1723 26.3358 27.4335C28.9091 26.6947 29.7274 28.401 29.815 29.3465C30.2088 31.5233 31.0885 36.4048 31.4561 38.5156C31.8237 40.6265 30.5152 40.0988 29.815 39.5711Z" stroke="white"/>
<path d="M31.85 38.5156L30.3401 28.0932C30.149 26.7739 31.7484 26.6639 32.5721 26.7739C33.6443 26.6639 36.5108 26.7739 39.3991 28.0932C42.2875 29.4125 41.9155 30.4459 41.3685 30.7977C39.4429 32.249 35.2504 35.8243 33.885 38.5156C32.5195 41.207 31.9594 39.637 31.85 38.5156Z" stroke="white"/>
<path d="M46.3575 37.922L36.6421 39.9669C32.0206 41.3917 33.141 39.5931 34.2788 38.5156C35.8762 36.9545 39.4648 33.4231 41.0403 31.7872C42.6158 30.1513 43.9724 30.8417 44.4538 31.3914C44.5413 31.5893 45.189 32.46 47.0796 34.3598C48.9702 36.2596 47.386 37.5262 46.3575 37.922Z" stroke="white"/>
<path d="M45.8324 47.289C43.2066 45.8114 37.4298 43.551 34.8696 42.6055C32.2438 41.5969 33.7756 40.8659 34.8696 40.6265C37.3641 40.1208 43.1278 38.9642 46.2262 38.3837C49.3247 37.8032 49.7492 40.2087 49.5741 41.4841C49.421 44.0347 48.4582 48.7666 45.8324 47.289Z" stroke="white"/>
<path d="M37.6267 51.7746C37.3116 50.6136 34.6071 46.4095 33.2942 44.4525C32.0737 42.5842 33.6171 42.5306 34.5414 42.7374C36.7077 43.595 41.6179 45.5871 43.9287 46.6953C46.2394 47.8035 46.3356 49.18 46.0949 49.7297C46.0074 49.9936 45.1759 51.1018 42.5501 53.4237C39.2679 56.3262 38.0206 53.2259 37.6267 51.7746Z" stroke="white"/>
<path d="M37.8893 53.2259C37.7318 52.276 34.3664 46.7613 32.7033 44.1227C32.0206 42.5395 31.4999 43.507 31.3248 44.1886C31.106 45.2221 30.327 48.2785 28.9616 52.2364C27.5962 56.1943 28.7428 56.744 29.4867 56.5241C30.9528 56.6121 34.3839 56.6692 36.3795 56.1943C38.874 55.6006 38.0862 54.4132 37.8893 53.2259Z" stroke="white"/>
<path d="M30.8653 44.1227L27.6487 53.6216C27.0411 55.4159 25.6887 55.4687 25.0885 55.2708C24.0163 54.831 21.5043 53.6084 20.0339 52.2364C18.5634 50.8643 20.6465 49.5978 21.8719 49.136C23.7975 47.6628 28.0163 44.4657 29.4867 43.463C30.9572 42.4604 31.0185 43.485 30.8653 44.1227Z" stroke="white"/>
<path d="M29.2898 43.1332C28.8697 43.2387 21.9813 48.0586 18.5897 50.4553C17.5919 50.6664 16.6422 49.6637 16.2921 49.136C15.745 47.9926 14.5984 45.2573 14.3884 43.463C14.1783 41.6688 16.314 41.2642 17.4081 41.2862C20.7341 41.3521 27.7012 41.4973 28.9616 41.55C30.5371 41.616 29.815 43.0013 29.2898 43.1332Z" stroke="white"/>
<path d="M87.0956 66.3825C78.7775 67.7547 72.9892 66.6904 71.1349 65.9867C71.7972 63.5458 71.7972 62.1605 74.5125 62.1605C79.8834 62.1605 77.0291 61.039 80.2742 59.5877C82.8704 58.4266 86.3009 59.5437 87.6917 60.2474C90.9589 61.7207 95.4138 65.0104 87.0956 66.3825Z" fill="#171717"/>
<defs>
<linearGradient id="paint0_linear" x1="42.0502" y1="13.9521" x2="25.5789" y2="91.2703" gradientUnits="userSpaceOnUse">
<stop stop-color="#7F30A4" stop-opacity="0.71"/>
<stop offset="1" stop-color="#8C1717" stop-opacity="0"/>
</linearGradient>
</defs>
</svg>
